HIERARCHY
ROOT RightShoulder
{
	OFFSET -1.644901 -0.003980 3.801207
	CHANNELS 6 Xposition Yposition Zposition Xrotation Yrotation Zrotation
	JOINT RightElbow
	{
		OFFSET -2.454748 0.000000 0.000000
		CHANNELS 3 Xrotation Yrotation Zrotation
		JOINT RightWrist
		{
			OFFSET -2.035185 -0.001238 0.000000
			CHANNELS 3 Xrotation Yrotation Zrotation
			End Site
			{
				OFFSET -1.535909 0.000000 0.000000
			}
		}
	}
}
MOTION
Frames: 72
Frame Time: 0.050000
-1.644901 -0.003980 3.801207 -37.391686 -32.070627 11.139063 2.347898 -65.120854 52.560204 -84.548753 -37.981743 -64.500249 
-1.644901 -0.003980 3.801207 -36.740434 -31.603077 11.591021 2.347901 -65.120854 52.560201 -84.548753 -37.981746 -64.500249 
-1.644901 -0.003980 3.801207 -39.489517 -33.325996 13.313798 37.205198 -41.320845 82.562439 -50.354115 -10.040424 -9.605935 
-1.644901 -0.003980 3.801207 -36.090354 -33.921052 17.300878 -16.943538 -25.669389 25.807060 -56.037928 14.029017 30.587192 
-1.644901 -0.003980 3.801207 -34.450234 -33.965732 18.575683 -16.943544 -25.669386 25.807059 -56.037925 14.029019 30.587192 
-1.644901 -0.003980 3.801207 -32.767716 -32.225181 19.106783 -16.943541 -25.669389 25.807059 -56.037915 14.029020 30.587196 
-1.644901 -0.003980 3.801207 -29.310514 -29.987498 19.514375 0.846803 -16.609905 72.093535 0.655061 25.938863 43.018615 
-1.644901 -0.003980 3.801207 -28.208473 -28.100797 18.205190 0.846809 -16.609905 72.093535 0.655059 25.938863 43.018615 
-1.644901 -0.003980 3.801207 -26.824796 -26.935193 16.613018 0.846806 -16.609907 72.093535 0.655057 25.938864 43.018615 
-1.644901 -0.003980 3.801207 -25.115220 -24.897838 15.155923 0.846805 -16.609910 72.093535 0.655059 25.938863 43.018615 
-1.644901 -0.003980 3.801207 -24.486763 -23.326641 13.454524 0.846804 -16.609910 72.093535 0.655059 25.938863 43.018615 
-1.644901 -0.003980 3.801207 -24.301704 -22.309705 11.513933 0.846806 -16.609908 72.093535 0.655056 25.938861 43.018615 
-1.644901 -0.003980 3.801207 -24.235359 -22.005275 9.391849 0.846805 -16.609910 72.093535 0.655058 25.938866 43.018615 
-1.644901 -0.003980 3.801207 -24.504975 -22.070160 7.375666 0.846806 -16.609905 72.093535 0.655056 25.938864 43.018615 
-1.644901 -0.003980 3.801207 -25.279474 -22.347377 4.889050 0.846803 -16.609910 72.093535 0.655053 25.938864 43.018615 
-1.644901 -0.003980 3.801207 -25.211063 -23.136668 2.501955 0.846804 -16.609905 72.093535 0.655059 25.938866 43.018615 
-1.644901 -0.003980 3.801207 -26.771457 -24.698767 -0.003988 4.802860 -9.267271 34.144928 -1.934526 14.604058 13.859751 
-1.644901 -0.003980 3.801207 -28.386937 -26.542463 -3.156474 4.802858 -9.267271 34.144935 -1.934520 14.604054 13.859757 
-1.644901 -0.003980 3.801207 -31.258231 -29.002349 -6.924409 4.802860 -9.267265 34.144925 -1.934524 14.604058 13.859752 
-1.644901 -0.003980 3.801207 -36.719958 -31.897687 -11.020005 4.802856 -9.267269 34.144928 -1.934520 14.604058 13.859752 
-1.644901 -0.003980 3.801207 -41.191887 -34.900644 -15.056011 4.802858 -9.267266 34.144932 -1.934523 14.604056 13.859755 
-1.644901 -0.003980 3.801207 -47.648882 -38.106107 -20.044054 4.802860 -9.267269 34.144932 -1.934523 14.604056 13.859751 
-1.644901 -0.003980 3.801207 -54.419956 -40.036581 -26.287177 4.802859 -9.267268 34.144928 -1.934526 14.604056 13.859750 
-1.644901 -0.003980 3.801207 -59.617880 -40.979424 -32.827426 4.802861 -9.267270 34.144935 -1.934522 14.604058 13.859750 
-1.644901 -0.003980 3.801207 -60.293652 -41.348422 -37.834337 4.802856 -9.267272 34.144928 -1.934522 14.604054 13.859751 
-1.644901 -0.003980 3.801207 -61.009927 -42.245031 -42.809990 4.802855 -9.267270 34.144928 -1.934524 14.604054 13.859753 
-1.644901 -0.003980 3.801207 -59.296533 -42.628481 -47.019060 4.802857 -9.267266 34.144928 -1.934526 14.604056 13.859755 
-1.644901 -0.003980 3.801207 -57.829771 -43.615792 -51.180838 4.802857 -9.267268 34.144928 -1.934525 14.604058 13.859751 
-1.644901 -0.003980 3.801207 -56.715787 -44.878076 -54.775153 4.802857 -9.267269 34.144932 -1.934527 14.604056 13.859752 
-1.644901 -0.003980 3.801207 -55.945885 -45.027957 -57.570906 4.802860 -9.267268 34.144928 -1.934529 14.604054 13.859745 
-1.644901 -0.003980 3.801207 -53.468893 -45.102697 -58.818440 4.802861 -9.267269 34.144928 -1.934527 14.604054 13.859747 
-1.644901 -0.003980 3.801207 -47.994964 -46.624019 -57.719361 4.802858 -9.267269 34.144925 -1.934528 14.604056 13.859750 
-1.644901 -0.003980 3.801207 -43.283288 -46.168855 -56.278372 4.802859 -9.267267 34.144932 -1.934522 14.604056 13.859750 
-1.644901 -0.003980 3.801207 -38.344986 -46.496789 -54.188327 4.802858 -9.267268 34.144928 -1.934527 14.604058 13.859752 
-1.644901 -0.003980 3.801207 -34.266410 -45.368790 -52.728927 74.270268 -17.093013 52.950813 -9.018491 -13.048010 -36.011527 
-1.644901 -0.003980 3.801207 -30.565831 -45.078951 -50.912927 74.270275 -17.093013 52.950816 -9.018490 -13.048010 -36.011524 
-1.644901 -0.003980 3.801207 -27.261127 -45.337098 -49.334695 74.270268 -17.093015 52.950816 -9.018492 -13.048012 -36.011524 
-1.644901 -0.003980 3.801207 -24.790605 -45.728301 -47.942908 74.270275 -17.093016 52.950816 -9.018493 -13.048010 -36.011524 
-1.644901 -0.003980 3.801207 -22.678875 -45.768223 -46.975695 74.270268 -17.093018 52.950816 -9.018490 -13.048012 -36.011524 
-1.644901 -0.003980 3.801207 -20.906710 -45.804130 -46.154477 74.270268 -17.093018 52.950813 -9.018490 -13.048012 -36.011520 
-1.644901 -0.003980 3.801207 -19.121135 -45.739441 -45.147161 74.270275 -17.093018 52.950816 -9.018487 -13.048013 -36.011524 
-1.644901 -0.003980 3.801207 -17.281480 -45.136766 -44.177404 74.270275 -17.093013 52.950813 -9.018496 -13.048008 -36.011524 
-1.644901 -0.003980 3.801207 -17.001321 -44.808015 -44.376337 74.270268 -17.093018 52.950816 -9.018496 -13.048011 -36.011520 
-1.644901 -0.003980 3.801207 -16.758506 -44.872587 -44.452886 74.270261 -17.093018 52.950816 -9.018494 -13.048011 -36.011520 
-1.644901 -0.003980 3.801207 -17.203860 -45.229052 -45.255194 74.270268 -17.093015 52.950813 -9.018493 -13.048010 -36.011520 
-1.644901 -0.003980 3.801207 -17.413583 -45.532677 -45.645184 74.270268 -17.093018 52.950816 -9.018487 -13.048012 -36.011524 
-1.644901 -0.003980 3.801207 -17.542535 -45.755659 -45.847170 74.270268 -17.093013 52.950816 -9.018495 -13.048013 -36.011524 
-1.644901 -0.003980 3.801207 -17.491416 -45.954544 -45.815041 74.270268 -17.093018 52.950816 -9.018490 -13.048012 -36.011524 
-1.644901 -0.003980 3.801207 -17.512439 -46.118810 -45.815044 74.270261 -17.093021 52.950816 -9.018490 -13.048016 -36.011527 
-1.644901 -0.003980 3.801207 -17.635250 -46.443330 -46.004008 74.270268 -17.093018 52.950820 -9.018490 -13.048012 -36.011527 
-1.644901 -0.003980 3.801207 -18.006505 -46.739944 -46.398551 74.270268 -17.093020 52.950809 -9.018495 -13.048008 -36.011524 
-1.644901 -0.003980 3.801207 -18.281763 -46.983116 -46.898159 74.270268 -17.093018 52.950813 -9.018492 -13.048011 -36.011524 
-1.644901 -0.003980 3.801207 -18.414516 -47.297533 -47.108446 74.270275 -17.093016 52.950816 -9.018493 -13.048010 -36.011527 
-1.644901 -0.003980 3.801207 -18.143966 -47.577937 -46.685487 74.270268 -17.093018 52.950816 -9.018496 -13.048011 -36.011524 
-1.644901 -0.003980 3.801207 -18.227369 -47.861314 -46.568551 74.270268 -17.093016 52.950813 -9.018491 -13.048011 -36.011520 
-1.644901 -0.003980 3.801207 -18.235603 -47.978739 -46.425615 74.270275 -17.093016 52.950813 -9.018490 -13.048011 -36.011524 
-1.644901 -0.003980 3.801207 -18.598969 -48.182169 -46.749926 74.270268 -17.093016 52.950813 -9.018489 -13.048012 -36.011524 
-1.644901 -0.003980 3.801207 -18.672192 -48.162703 -46.901946 74.270268 -17.093018 52.950816 -9.018496 -13.048009 -36.011524 
-1.644901 -0.003980 3.801207 -18.934338 -48.058724 -47.200026 74.270268 -17.093018 52.950816 -9.018490 -13.048007 -36.011524 
-1.644901 -0.003980 3.801207 -18.979547 -48.191055 -47.169556 74.270268 -17.093015 52.950813 -9.018494 -13.048013 -36.011527 
-1.644901 -0.003980 3.801207 -18.991776 -48.215589 -46.977471 74.270268 -17.093018 52.950816 -9.018490 -13.048013 -36.011524 
-1.644901 -0.003980 3.801207 -19.281955 -47.993690 -47.074548 74.270268 -17.093016 52.950816 -9.018496 -13.048010 -36.011520 
-1.644901 -0.003980 3.801207 -19.815441 -47.808572 -47.443430 74.270268 -17.093016 52.950813 -9.018493 -13.048013 -36.011524 
-1.644901 -0.003980 3.801207 -19.930220 -47.647673 -47.607464 74.270268 -17.093011 52.950809 -9.018490 -13.048012 -36.011524 
-1.644901 -0.003980 3.801207 -20.348056 -47.360620 -47.988451 74.270275 -17.093016 52.950816 -9.018492 -13.048011 -36.011524 
-1.644901 -0.003980 3.801207 -20.368295 -47.390178 -47.806297 74.270261 -17.093015 52.950816 -9.018492 -13.048008 -36.011524 
-1.644901 -0.003980 3.801207 -20.805654 -47.124935 -48.091656 74.270268 -17.093018 52.950816 -9.018495 -13.048007 -36.011524 
-1.644901 -0.003980 3.801207 -21.050682 -47.114734 -48.251520 74.270275 -17.093015 52.950813 -9.018494 -13.048010 -36.011527 
-1.644901 -0.003980 3.801207 -21.210749 -47.156733 -48.158250 74.270261 -17.093018 52.950816 -9.018493 -13.048013 -36.011524 
-1.644901 -0.003980 3.801207 -21.365974 -47.083001 -48.005322 74.270268 -17.093011 52.950816 -9.018492 -13.048010 -36.011524 
-1.644901 -0.003980 3.801207 -21.742720 -47.182643 -47.978445 74.270268 -17.093020 52.950816 -9.018489 -13.048010 -36.011524 
-1.644901 -0.003980 3.801207 -21.947493 -47.070853 -47.981509 74.270275 -17.093015 52.950816 -9.018493 -13.048011 -36.011524 
